Jump_normalized_Motion_pl02
version=1
nRows=12
nColumns=43
inDegrees=yes
endheader
time		pelvis_tilt		pelvis_list		pelvis_rotation		pelvis_tx		pelvis_ty		pelvis_tz		hip_flexion_r		hip_adduction_r		hip_rotation_r		knee_angle_r		ankle_angle_r		subtalar_angle_r		mtp_angle_r		hip_flexion_l		hip_adduction_l		hip_rotation_l		knee_angle_l		ankle_angle_l		subtalar_angle_l		mtp_angle_l		lumbar_extension		lumbar_bending		lumbar_rotation		neck_flexion		neck_lateral_bending		neck_rotation		arm_flex_r		arm_add_r		arm_rot_r		elbow_flex_r		pro_sup_r		wrist_flex_r		wrist_dev_r		hand_finger_flex_r		arm_flex_l		arm_add_l		arm_rot_l		elbow_flex_l		pro_sup_l		wrist_flex_l		wrist_dev_l		hand_finger_flex_l		
0.488333		6.090907		-34.113541		91.456564		0.001552		1.770995		1.650580		72.916827		-12.965417		2.699662		-122.550187		33.098419		10.817444		-12.756715		73.059658		-10.788594		5.032173		-122.959300		37.588073		-6.820047		-29.790766		-22.772554		4.042240		3.541111		31.210209		-0.714233		5.153602		128.141697		-16.035220		45.005623		62.035135		56.523799		-23.391472		-19.020404		62.884459		134.561131		-19.682836		59.807852		66.227635		61.137352		-47.316232		1.766251		83.356950		
0.490808		6.162936		-33.873655		91.526197		0.001410		1.772853		1.645041		72.273290		-12.958213		2.514071		-122.300916		31.807454		10.516512		-11.455919		72.338361		-10.814817		5.112733		-122.659432		36.749472		-6.768713		-29.329064		-22.788413		4.130295		3.486214		30.778948		-0.745737		5.135471		128.258301		-16.006516		45.155228		61.721818		56.819451		-23.046907		-18.760013		61.385177		134.827291		-19.793943		60.379899		65.973898		60.826713		-46.861924		1.497771		83.326332		
0.493283		6.289086		-33.474451		91.632682		0.001241		1.774992		1.639341		71.446446		-12.939369		2.239295		-122.018593		30.315403		10.084039		-8.828453		71.474803		-10.868347		5.251463		-122.365730		35.830513		-6.725891		-28.358842		-23.014951		4.276605		3.426474		30.466826		-0.779513		5.158328		128.385406		-15.987363		45.221172		61.441747		57.304320		-22.221232		-18.392062		58.658854		135.189035		-19.969106		61.060901		65.723706		60.189162		-46.193745		0.920329		83.185694		
0.495758		6.241265		-33.449981		91.640328		0.001026		1.776279		1.633951		71.158185		-13.027693		2.181317		-121.858814		29.131587		9.977497		-8.820949		71.047682		-10.834409		5.250090		-122.113942		34.793514		-6.559327		-28.427596		-22.738562		4.261084		3.381753		29.857402		-0.802938		5.113901		128.441383		-16.021753		45.496987		61.160119		57.388586		-22.214697		-18.249518		58.616441		135.266721		-20.005338		61.506752		65.540048		60.297035		-46.100431		1.005750		83.215776		
0.498232		6.198687		-33.311012		91.666135		0.000778		1.777834		1.628533		70.780237		-13.114694		2.080526		-121.663620		27.606168		9.542353		-8.605981		70.525132		-10.762453		5.252453		-121.851277		33.678019		-6.679115		-28.399093		-22.642402		4.249764		3.286280		29.413518		-0.803225		5.077753		128.550346		-16.034037		45.758326		60.887212		57.498141		-22.226959		-18.062025		58.402747		135.484716		-20.072890		62.057039		65.325569		60.396905		-45.887244		1.049595		83.259166		
0.500707		6.154174		-33.078384		91.695105		0.000448		1.779511		1.622988		70.314787		-13.216720		1.932191		-121.462341		25.949241		8.842587		-8.108709		69.916327		-10.689518		5.211077		-121.590810		32.447893		-6.976008		-28.256591		-22.675993		4.244279		3.164501		29.103480		-0.775947		5.074727		128.678296		-16.058748		46.012976		60.678085		57.632956		-22.214445		-17.840651		58.026656		135.769379		-20.189486		62.682472		65.145463		60.465903		-45.576749		1.047031		83.305996		
0.503182		6.109908		-32.928868		91.714801		0.000165		1.780930		1.617525		69.979015		-13.328294		1.857762		-121.302242		24.339793		8.688159		-7.801969		69.447205		-10.646827		5.226236		-121.367718		31.225334		-6.884232		-28.175482		-22.577395		4.235315		3.095300		28.598480		-0.783248		5.047672		128.766905		-16.129682		46.325538		60.461280		57.744779		-22.147748		-17.635618		57.798503		135.908766		-20.244406		63.203235		64.950328		60.494724		-45.404541		1.065607		83.294041		
0.505657		6.047802		-32.690922		91.753222		-0.000201		1.782530		1.612066		69.583113		-13.454209		1.728218		-121.113130		22.376825		8.039739		-7.058594		68.916250		-10.533662		5.200851		-121.138686		29.807142		-7.178695		-27.887342		-22.630013		4.218697		2.977415		28.286791		-0.756179		5.021085		128.923950		-16.215541		46.644668		60.284947		57.893642		-22.013461		-17.369215		57.356560		136.201767		-20.340689		63.872620		64.760634		60.498083		-45.117655		1.012718		83.255424		
0.508131		6.004392		-32.568633		91.771250		-0.000527		1.783764		1.606714		69.344234		-13.576302		1.673033		-120.960249		20.557785		7.966394		-6.804517		68.555827		-10.480564		5.233857		-120.960263		28.431308		-7.041157		-27.803945		-22.508474		4.210105		2.914747		27.757425		-0.764577		4.992641		129.002465		-16.295135		46.987849		60.060417		58.020597		-21.920401		-17.177986		57.198136		136.338111		-20.370626		64.375550		64.553101		60.544119		-44.999001		1.051382		83.227525		
0.510606		5.945729		-32.408072		91.821593		-0.000965		1.785100		1.601430		69.105459		-13.716439		1.566345		-120.778815		18.343562		7.275047		-6.126192		68.196154		-10.337947		5.223608		-120.775501		26.824150		-7.413423		-27.476649		-22.480608		4.198557		2.800208		27.448117		-0.732725		4.953571		129.158791		-16.412813		47.359093		59.888388		58.202456		-21.736927		-16.936059		56.880515		136.613910		-20.440299		65.048447		64.365622		60.588502		-44.795673		1.038632		83.169095		
0.513081		5.910829		-32.287072		91.847518		-0.001259		1.786264		1.596201		68.928781		-13.832274		1.525831		-120.617604		16.375268		7.275318		-6.040840		67.927697		-10.283659		5.285624		-120.630675		25.322296		-7.226875		-27.451711		-22.371350		4.194405		2.740309		26.932975		-0.741856		4.924624		129.256701		-16.490726		47.731635		59.643829		58.350465		-21.659494		-16.756523		56.792076		136.727973		-20.443176		65.541914		64.124847		60.664382		-44.712597		1.109825		83.148208		
0.515556		5.885505		-32.172221		91.915905		-0.001703		1.787345		1.591082		68.805392		-13.969417		1.427562		-120.452126		14.054143		6.752696		-5.824037		67.724444		-10.157063		5.301363		-120.517544		23.649937		-7.515431		-27.300889		-22.293933		4.213300		2.648654		26.665073		-0.717907		4.867603		129.428331		-16.597523		48.160152		59.415720		58.561892		-21.528513		-16.549722		56.647432		136.955447		-20.449605		66.158332		63.865144		60.775072		-44.595073		1.169480		83.111052		
